<svg width="24" height="24" viewBox="0 0 24 24" fill="none" xmlns="http://www.w3.org/2000/svg">
  <path d="M12 24C18.6274 24 24 18.6274 24 12C24 5.37258 18.6274 0 12 0C5.37258 0 0 5.37258 0 12C0 18.6274 5.37258 24 12 24Z" fill="#0052FF"/>
  <path d="M12 4.5C7.85775 4.5 4.5 7.85775 4.5 12C4.5 16.1423 7.85775 19.5 12 19.5C16.1423 19.5 19.5 16.1423 19.5 12C19.5 7.85775 16.1423 4.5 12 4.5ZM8.95125 15.0487C8.775 15.0487 8.625 14.8987 8.625 14.7225V9.2775C8.625 9.10125 8.775 8.95125 8.95125 8.95125H15.0487C15.225 8.95125 15.375 9.10125 15.375 9.2775V14.7225C15.375 14.8987 15.225 15.0487 15.0487 15.0487H8.95125Z" fill="white"/>
</svg> 