<?xml version="1.0" encoding="UTF-8"?>
<svg width="20" height="20" viewBox="0 0 20 20" fill="none" xmlns="http://www.w3.org/2000/svg">
  <path d="M15.2317 7.31641C14.8708 7.11641 14.4183 7.11641 14.0392 7.31641L11.2342 8.91641L9.34583 9.91641L6.54083 11.5164C6.17999 11.7164 5.72749 11.7164 5.34833 11.5164L3.17499 10.2664C2.81416 10.0664 2.57499 9.68307 2.57499 9.26641V6.83307C2.57499 6.41641 2.79583 6.03307 3.17499 5.83307L5.32999 4.61641C5.69083 4.41641 6.14333 4.41641 6.52249 4.61641L8.67749 5.83307C9.03833 6.03307 9.27749 6.41641 9.27749 6.83307V8.43307L11.1658 7.41641V5.81641C11.1658 5.39974 10.945 5.01641 10.5658 4.81641L6.54083 2.58307C6.17999 2.38307 5.72749 2.38307 5.34833 2.58307L1.26499 4.81641C0.885825 5.01641 0.665039 5.39974 0.665039 5.81641V10.2831C0.665039 10.6997 0.885825 11.0831 1.26499 11.2831L5.34833 13.5164C5.70916 13.7164 6.16166 13.7164 6.54083 13.5164L9.34583 11.9497L11.2342 10.9164L14.0392 9.34974C14.4 9.14974 14.8525 9.14974 15.2317 9.34974L17.3867 10.5664C17.7475 10.7664 17.9867 11.1497 17.9867 11.5664V13.9997C17.9867 14.4164 17.7658 14.7997 17.3867 14.9997L15.2317 16.2497C14.8708 16.4497 14.4183 16.4497 14.0392 16.2497L11.8842 15.0331C11.5233 14.8331 11.2842 14.4497 11.2842 14.0331V12.4331L9.39583 13.4497V15.0497C9.39583 15.4664 9.61666 15.8497 9.99583 16.0497L14.0792 18.2831C14.44 18.4831 14.8925 18.4831 15.2717 18.2831L19.355 16.0497C19.7158 15.8497 19.955 15.4664 19.955 15.0497V10.5831C19.955 10.1664 19.7342 9.78307 19.355 9.58307L15.2317 7.31641Z" fill="#8247E5"/>
</svg> 